<?xml version="1.0" encoding="UTF-8"?>
<svg width="21px" height="20px" viewBox="0 0 21 20" version="1.1" xmlns="http://www.w3.org/2000/svg" xmlns:xlink="http://www.w3.org/1999/xlink">
    <!-- Generator: Sketch 43.1 (39012) - http://www.bohemiancoding.com/sketch -->
    <title>Group 14</title>
    <desc>Created with Sketch.</desc>
    <defs></defs>
    <g id="Page-1" stroke="none" stroke-width="1" fill="none" fill-rule="evenodd">
        <g id="Home" transform="translate(-1172.000000, -750.000000)" fill-rule="nonzero" fill="#FFFFFF">
            <g id="Group-16" transform="translate(1136.000000, 750.000000)">
                <g id="Group-14" transform="translate(36.000000, 0.000000)">
                    <path d="M19.5135135,3.45173745 C19.2586873,2.7953668 18.9189189,2.23938224 18.3629344,1.68339768 C17.8069498,1.12741313 17.2509653,0.787644788 16.5945946,0.532818533 C15.96139,0.285714286 15.2277992,0.115830116 14.1698842,0.0694980695 C13.1042471,0.0231660232 12.7644788,0.00772200772 10.046332,0.00772200772 C7.32818533,0.00772200772 6.98841699,0.0154440154 5.92277992,0.0694980695 C4.85714286,0.115830116 4.13127413,0.285714286 3.4980695,0.532818533 C2.84169884,0.787644788 2.28571429,1.12741313 1.72972973,1.68339768 C1.17374517,2.23938224 0.833976834,2.7953668 0.579150579,3.45173745 C0.332046332,4.08494208 0.162162162,4.81853282 0.115830116,5.87644788 C0.0694980695,6.94208494 0.0540540541,7.28185328 0.0540540541,10 C0.0540540541,12.7181467 0.0617760618,13.0579151 0.115830116,14.1235521 C0.162162162,15.1891892 0.332046332,15.9150579 0.579150579,16.5482625 C0.833976834,17.2046332 1.17374517,17.7606178 1.72972973,18.3166023 C2.28571429,18.8725869 2.84169884,19.2123552 3.4980695,19.4671815 C4.13127413,19.7142857 4.86486486,19.8841699 5.92277992,19.9305019 C6.98841699,19.976834 7.32818533,19.992278 10.046332,19.992278 C12.7644788,19.992278 13.1042471,19.984556 14.1698842,19.9305019 C15.2355212,19.8841699 15.96139,19.7142857 16.5945946,19.4671815 C17.2509653,19.2123552 17.8069498,18.8725869 18.3629344,18.3166023 C18.9189189,17.7606178 19.2586873,17.2046332 19.5135135,16.5482625 C19.7606178,15.9150579 19.9305019,15.1814672 19.976834,14.1235521 C20.023166,13.0579151 20.03861,12.7181467 20.03861,10 C20.03861,7.28185328 20.030888,6.94208494 19.976834,5.87644788 C19.9305019,4.81081081 19.7606178,4.08494208 19.5135135,3.45173745 Z M18.1776062,14.03861 C18.1312741,15.011583 17.969112,15.5444015 17.8301158,15.8918919 C17.6525097,16.3552124 17.4285714,16.6949807 17.0810811,17.042471 C16.7335907,17.3899614 16.4015444,17.6061776 15.9305019,17.7915058 C15.5752896,17.9305019 15.0501931,18.0926641 14.0772201,18.1389961 C13.019305,18.1853282 12.7104247,18.2007722 10.03861,18.2007722 C7.36679537,18.2007722 7.05019305,18.1930502 6,18.1389961 C5.02702703,18.0926641 4.49420849,17.9305019 4.14671815,17.7915058 C3.68339768,17.6138996 3.34362934,17.3899614 2.996139,17.042471 C2.64864865,16.6949807 2.43243243,16.3629344 2.24710425,15.8918919 C2.10810811,15.5366795 1.94594595,15.011583 1.8996139,14.03861 C1.85328185,12.980695 1.83783784,12.6640927 1.83783784,10 C1.83783784,7.33590734 1.84555985,7.01158301 1.8996139,5.96138996 C1.94594595,4.98841699 2.10810811,4.45559846 2.24710425,4.10810811 C2.42471042,3.64478764 2.64864865,3.30501931 2.996139,2.95752896 C3.34362934,2.61003861 3.67567568,2.39382239 4.14671815,2.20849421 C4.5019305,2.06949807 5.02702703,1.90733591 6,1.86100386 C7.05791506,1.81467181 7.37451737,1.7992278 10.03861,1.7992278 C12.7027027,1.7992278 13.027027,1.80694981 14.0772201,1.86100386 C15.0501931,1.90733591 15.5830116,2.06949807 15.9305019,2.20849421 C16.3938224,2.38610039 16.7335907,2.61003861 17.0810811,2.95752896 C17.4285714,3.30501931 17.6447876,3.63706564 17.8301158,4.10810811 C17.969112,4.46332046 18.1312741,4.98841699 18.1776062,5.96138996 C18.2239382,7.01930502 18.2393822,7.33590734 18.2393822,10 C18.2393822,12.6640927 18.2239382,12.988417 18.1776062,14.03861 Z" id="XMLID_142_"></path>
                    <path d="M10.03861,4.86486486 C7.2046332,4.86486486 4.9034749,7.16602317 4.9034749,10 C4.9034749,12.8339768 7.2046332,15.1351351 10.03861,15.1351351 C12.8725869,15.1351351 15.1737452,12.8339768 15.1737452,10 C15.1737452,7.16602317 12.8725869,4.86486486 10.03861,4.86486486 Z M10.03861,13.3359073 C8.2007722,13.3359073 6.7027027,11.8455598 6.7027027,10 C6.7027027,8.16216216 8.19305019,6.66409266 10.03861,6.66409266 C11.8841699,6.66409266 13.3745174,8.15444015 13.3745174,10 C13.3745174,11.8378378 11.8764479,13.3359073 10.03861,13.3359073 Z" id="XMLID_145_"></path>
                    <ellipse id="XMLID_143_" cx="15.3745174" cy="4.66409266" rx="1.1969112" ry="1.1969112"></ellipse>
                </g>
            </g>
        </g>
    </g>
</svg>