<?xml version="1.0" encoding="UTF-8"?>
<svg width="32px" height="32px" viewBox="0 0 32 32" version="1.1" xmlns="http://www.w3.org/2000/svg" xmlns:xlink="http://www.w3.org/1999/xlink">
    <!-- Generator: Sketch 43.1 (39012) - http://www.bohemiancoding.com/sketch -->
    <title>Group 6 Copy</title>
    <desc>Created with Sketch.</desc>
    <defs></defs>
    <g id="Page-1" stroke="none" stroke-width="1" fill="none" fill-rule="evenodd">
        <g id="Home" transform="translate(-325.000000, -503.000000)">
            <g id="Group-13" transform="translate(60.000000, 504.000000)">
                <g id="Group-6-Copy" transform="translate(265.949239, 0.000000)">
                    <g id="Group-7">
                        <ellipse id="Oval-4" stroke="#FFFFFF" stroke-width="1.5" cx="15.0253807" cy="15" rx="15.0253807" ry="15"></ellipse>
                        <g id="1491186359_invision-social-network-brand-logo" transform="translate(8.263959, 9.750000)" fill-rule="nonzero" fill="#FFFFFF">
                            <g id="invision">
                                <g id="Group">
                                    <path d="M13.1530369,8.6827306 C13.1530369,8.6827306 12.7039918,9.70560129 12.1858752,9.88922198 C11.6677586,10.0728168 11.2204621,9.67935129 12.0793699,7.7386875 C12.9385108,5.79775862 12.4552958,4.11910991 11.9184688,3.59454957 C11.3813632,3.06998922 9.9320098,2.9126444 9.12675302,3.38480819 C8.32124365,3.85684267 7.7818843,4.52586207 7.7818843,4.52586207 L8.04094259,3.12251509 L4.88542482,3.1749375 L4.4022293,4.90596336 L5.79795764,4.90596336 C5.79795764,4.90596336 4.50950534,8.71684267 4.4022293,8.80472198 C4.29495974,8.89262716 3.3778934,9.57704095 2.98930597,9.70560129 C2.60071854,9.83442026 2.14736653,9.94174784 2.36214528,9.10249784 C2.57693051,8.26324784 3.86538281,3.12251509 3.86538281,3.12251509 L0.321543147,3.12251509 L0,4.80103448 L0,4.90596336 L1.28847821,4.90596336 C1.28847821,4.90596336 0.269193944,8.89262716 0.214791703,9.36465517 C0.160149834,9.83692888 0.269193944,10.8128341 1.82354367,11.0956875 C3.3778934,11.3787931 4.50950534,9.88922198 4.50950534,9.88922198 L4.29495974,11.0956875 L6.33504376,11.0956875 C6.33504376,11.0956875 7.39329687,6.98275862 7.7818843,6.07758621 C8.17047173,5.17241379 9.46576317,4.38091164 10.1134089,4.90596336 C10.7610546,5.43103448 10.4688563,6.26979957 10.2004201,6.95170474 C9.9320098,7.63360991 9.33623403,9.43965517 9.8543506,10.3448276 C10.3724672,11.25 12.0793699,11.637931 13.0457609,10.5188599 C13.7402249,9.70560129 13.9992832,8.92241379 13.9992832,8.92241379 L13.1530369,8.6827306 Z" id="Shape"></path>
                                    <ellipse id="Oval" cx="2.85977682" cy="1.03448276" rx="1.03623315" ry="1.03448276"></ellipse>
                                </g>
                            </g>
                        </g>
                    </g>
                </g>
            </g>
        </g>
    </g>
</svg>