<?xml version="1.0" encoding="UTF-8"?>
<svg width="33px" height="32px" viewBox="0 0 33 32" version="1.1" xmlns="http://www.w3.org/2000/svg" xmlns:xlink="http://www.w3.org/1999/xlink">
    <!-- Generator: Sketch 43.1 (39012) - http://www.bohemiancoding.com/sketch -->
    <title>Group 6</title>
    <desc>Created with Sketch.</desc>
    <defs></defs>
    <g id="Page-1" stroke="none" stroke-width="1" fill="none" fill-rule="evenodd">
        <g id="Home" transform="translate(-280.000000, -503.000000)">
            <g id="Group-13" transform="translate(60.000000, 504.000000)">
                <g id="Group-6" transform="translate(221.624365, 0.000000)">
                    <ellipse id="Oval-4" stroke="#FFFFFF" stroke-width="1.5" cx="15.0253807" cy="15" rx="15.0253807" ry="15"></ellipse>
                    <g id="Group" transform="translate(5.258883, 9.750000)" fill-rule="nonzero" fill="#FFFFFF">
                        <polygon id="Shape" points="3.00326929 0.0447863924 5.83593395 8.02936709 8.6534068 0.0447863924 11.6375615 0.0447863924 11.6375615 11.0539082 9.35779284 11.0539082 9.35779284 8.04453323 9.58502795 2.84995253 6.60843346 11.053837 5.04824263 11.053837 2.0792797 2.8575 2.30651481 8.04446203 2.30651481 11.053837 0.0343063677 11.053837 0.0343063677 0.0447863924"></polygon>
                        <path d="M18.3860734,10.2221203 C17.8457303,10.8774684 17.0984791,11.2051424 16.1441059,11.2051424 C15.2655491,11.2051424 14.5952554,10.9531566 14.133225,10.4490427 C13.6711945,9.945 13.4351867,9.20648734 13.4250588,8.23357595 L13.4250588,2.87273734 L15.6138906,2.87273734 L15.6138906,8.16408228 C15.6138906,9.01701741 16.0026724,9.44337816 16.7803071,9.44337816 C17.5224944,9.44337816 18.0325252,9.18605222 18.3101857,8.67118671 L18.3101857,2.87266614 L20.5066491,2.87266614 L20.5066491,11.053837 L18.4465553,11.053837 L18.3860734,10.2221203 Z" id="Shape"></path>
                    </g>
                </g>
            </g>
        </g>
    </g>
</svg>