<?xml version="1.0" encoding="UTF-8"?>
<svg width="33px" height="32px" viewBox="0 0 33 32" version="1.1" xmlns="http://www.w3.org/2000/svg" xmlns:xlink="http://www.w3.org/1999/xlink">
    <!-- Generator: Sketch 43.1 (39012) - http://www.bohemiancoding.com/sketch -->
    <title>Group 11</title>
    <desc>Created with Sketch.</desc>
    <defs></defs>
    <g id="Page-1" stroke="none" stroke-width="1" fill="none" fill-rule="evenodd">
        <g id="Home" transform="translate(-236.000000, -503.000000)">
            <g id="Group-13" transform="translate(60.000000, 504.000000)">
                <g id="Group-11" transform="translate(177.299492, 0.000000)">
                    <ellipse id="Oval-4" stroke="#FFFFFF" stroke-width="1.5" cx="15.0253807" cy="15" rx="15.0253807" ry="15"></ellipse>
                    <g id="Group" transform="translate(9.766497, 9.750000)" fill-rule="nonzero" fill="#FFFFFF">
                        <polygon id="Shape" points="2.16097985 11.0539205 0.00870789109 11.0539205 0.00870789109 0.625852273 2.16097985 0.625852273"></polygon>
                        <path d="M3.69624365,7.12193182 C3.69624365,5.91397727 3.96766805,4.95181818 4.51051684,4.23556818 C5.05330872,3.519375 5.79581295,3.16125 6.73814336,3.16125 C7.49373789,3.16125 8.11791724,3.44301136 8.6105676,4.00636364 L8.6105676,0.0528409091 L10.6911275,0.0528409091 L10.6911275,11.0538636 L8.81864636,11.0538636 L8.71819259,10.2302273 C8.20169512,10.8748295 7.53682203,11.1971591 6.72380095,11.1971591 C5.81015536,11.1971591 5.07726965,10.8378977 4.52485925,10.1192045 C3.97244885,9.40068182 3.69624365,8.40159091 3.69624365,7.12193182 Z M5.76963236,7.26920455 C5.76963236,7.99829545 5.89632364,8.55704545 6.14987694,8.94556818 C6.40331641,9.33414773 6.77160898,9.52840909 7.25469774,9.52840909 C7.89560991,9.52840909 8.34756653,9.25744318 8.61062452,8.71539773 L8.61062452,5.64306818 C8.35234733,5.10107955 7.9051146,4.83005682 7.26904015,4.83005682 C6.2693401,4.83 5.76963236,5.643125 5.76963236,7.26920455 Z" id="Shape"></path>
                    </g>
                </g>
            </g>
        </g>
    </g>
</svg>