<?xml version="1.0" encoding="UTF-8"?>
<svg width="32px" height="32px" viewBox="0 0 32 32" version="1.1" xmlns="http://www.w3.org/2000/svg" xmlns:xlink="http://www.w3.org/1999/xlink">
    <!-- Generator: Sketch 43.1 (39012) - http://www.bohemiancoding.com/sketch -->
    <title>Group 10</title>
    <desc>Created with Sketch.</desc>
    <defs></defs>
    <g id="Page-1" stroke="none" stroke-width="1" fill="none" fill-rule="evenodd">
        <g id="Home" transform="translate(-192.000000, -503.000000)">
            <g id="Group-13" transform="translate(60.000000, 504.000000)">
                <g id="Group-10" transform="translate(132.974619, 0.000000)">
                    <g id="Fw" transform="translate(6.761421, 9.750000)" fill-rule="nonzero" fill="#FFFFFF">
                        <g id="Group">
                            <polygon id="Shape" points="0.0210137571 0.0429347826 5.80322666 0.0429347826 5.80322666 1.71940217 1.8493195 1.71940217 1.8493195 4.80684783 5.53565512 4.80684783 5.53565512 6.48336957 1.8493195 6.48336957 1.8493195 11.2306522 0.0210137571 11.2306522"></polygon>
                            <path d="M8.01761936,3.14690217 L8.77569337,6.81521739 C8.93923049,7.67842391 9.10271316,8.55809783 9.23652615,9.43788043 L9.26625028,9.43788043 C9.41487089,8.55809783 9.65271831,7.66179348 9.86084161,6.83184783 L10.7972604,3.14690217 L12.2837387,3.14690217 L13.1904333,6.73228261 C13.4134187,7.67842391 13.6066255,8.55815217 13.7701081,9.43788043 L13.7998323,9.43788043 C13.9187832,8.55809783 14.0822659,7.67842391 14.2754727,6.73228261 L15.0781329,3.14690217 L16.8767145,3.14690217 L14.6024925,11.2305435 L12.9079453,11.2305435 L12.0458913,7.94402174 C11.8229059,7.09744565 11.6594232,6.33391304 11.4958861,5.35456522 L11.466162,5.35456522 C11.3175414,6.35054348 11.1242801,7.14728261 10.9161568,7.94402174 L9.99454572,11.2305978 L8.28519091,11.2305978 L6.14472743,3.14695652 L8.01761936,3.14695652 L8.01761936,3.14690217 Z" id="Shape"></path>
                        </g>
                    </g>
                    <ellipse id="Oval-4" stroke="#FFFFFF" stroke-width="1.5" cx="15.0253807" cy="15" rx="15.0253807" ry="15"></ellipse>
                </g>
            </g>
        </g>
    </g>
</svg>