<?xml version="1.0" encoding="UTF-8"?>
<svg width="21px" height="20px" viewBox="0 0 21 20" version="1.1" xmlns="http://www.w3.org/2000/svg" xmlns:xlink="http://www.w3.org/1999/xlink">
    <!-- Generator: Sketch 43.1 (39012) - http://www.bohemiancoding.com/sketch -->
    <title>Group 15</title>
    <desc>Created with Sketch.</desc>
    <defs></defs>
    <g id="Page-1" stroke="none" stroke-width="1" fill="none" fill-rule="evenodd">
        <g id="Home" transform="translate(-1219.000000, -750.000000)" fill-rule="nonzero" fill="#FFFFFF">
            <g id="Group-16" transform="translate(1136.000000, 750.000000)">
                <g id="Group-15" transform="translate(83.000000, 0.000000)">
                    <path d="M0.347490347,6.64092664 L4.5019305,6.64092664 L4.5019305,20 L0.347490347,20 L0.347490347,6.64092664 Z M2.43243243,0 C3.76061776,0 4.84169884,1.08108108 4.84169884,2.40926641 C4.84169884,3.73745174 3.76061776,4.81853282 2.43243243,4.81853282 C1.0965251,4.81853282 0.0231660232,3.73745174 0.0231660232,2.40926641 C0.0231660232,1.08108108 1.0965251,0 2.43243243,0 L2.43243243,0 Z" id="XMLID_195_"></path>
                    <path d="M7.11196911,6.64092664 L11.0888031,6.64092664 L11.0888031,8.47104247 L11.1428571,8.47104247 C11.6988417,7.42084942 13.0501931,6.31660232 15.0733591,6.31660232 C19.2741313,6.31660232 20.0540541,9.08108108 20.0540541,12.6795367 L20.0540541,20 L15.9073359,20 L15.9073359,13.5057915 C15.9073359,11.953668 15.8841699,9.96138996 13.7528958,9.96138996 C11.5907336,9.96138996 11.2664093,11.6525097 11.2664093,13.3899614 L11.2664093,20 L7.11969112,20 L7.11969112,6.64092664 L7.11196911,6.64092664 Z" id="XMLID_192_"></path>
                </g>
            </g>
        </g>
    </g>
</svg>