<?xml version="1.0" encoding="UTF-8"?>
<svg width="33px" height="32px" viewBox="0 0 33 32" version="1.1" xmlns="http://www.w3.org/2000/svg" xmlns:xlink="http://www.w3.org/1999/xlink">
    <!-- Generator: Sketch 43.1 (39012) - http://www.bohemiancoding.com/sketch -->
    <title>Group 8</title>
    <desc>Created with Sketch.</desc>
    <defs></defs>
    <g id="Page-1" stroke="none" stroke-width="1" fill="none" fill-rule="evenodd">
        <g id="Home" transform="translate(-103.000000, -503.000000)">
            <g id="Group-13" transform="translate(60.000000, 504.000000)">
                <g id="Group-8" transform="translate(44.324873, 0.000000)">
                    <ellipse id="Oval-4" stroke="#FFFFFF" stroke-width="1.5" cx="15.0253807" cy="15" rx="15.0253807" ry="15"></ellipse>
                    <g id="Ps" transform="translate(8.263959, 9.750000)" fill-rule="nonzero" fill="#FFFFFF">
                        <g id="Group">
                            <path d="M0.0499362475,0.253151659 C0.767789833,0.122843602 1.76309669,0.0251125592 3.11730363,0.0251125592 C4.58574975,0.0251125592 5.66255684,0.334620853 6.36417447,0.920953791 C7.01676378,1.45850118 7.44103496,2.3217654 7.44103496,3.34791469 C7.44103496,4.39037915 7.11471359,5.25364336 6.49470301,5.84002962 C5.69524238,6.63819313 4.43887844,7.01280213 3.01940722,7.01280213 C2.64416436,7.01280213 2.30150023,6.99648697 2.04044314,6.9476481 L2.04044314,11.0848756 L0.0498828398,11.0848756 L0.0498828398,0.253151659 L0.0499362475,0.253151659 Z M2.04044314,5.36763626 C2.28515746,5.43279028 2.61147882,5.44905213 3.01940722,5.44905213 C4.52043207,5.44905213 5.43413188,4.71604265 5.43413188,3.42933057 C5.43413188,2.20766588 4.58569635,1.55617891 3.19885727,1.55617891 C2.64411095,1.55617891 2.25252532,1.60507109 2.04044314,1.65390995 L2.04044314,5.36763626 Z" id="Shape"></path>
                            <path d="M8.33823177,9.24424763 C8.79508168,9.52117891 9.65980658,9.81431872 10.3777136,9.81431872 C11.2587812,9.81431872 11.6503669,9.45597156 11.6503669,8.93479265 C11.6503669,8.39724526 11.3240455,8.1203673 10.3451348,7.77833531 C8.79513508,7.24084123 8.14249236,6.39378555 8.15878173,5.46542062 C8.15878173,4.064609 9.31714244,2.97330569 11.1608848,2.97330569 C12.0419525,2.97330569 12.808781,3.20134479 13.2656309,3.44564573 L12.8740453,4.86271919 C12.5314346,4.66725711 11.8950812,4.406641 11.193517,4.406641 C10.47561,4.406641 10.0840243,4.7487263 10.0840243,5.2373282 C10.0840243,5.74224526 10.4592672,5.98659953 11.4709168,6.34494668 C12.9067308,6.86617891 13.5756629,7.59913507 13.5919523,8.77190758 C13.5919523,10.2052962 12.4661703,11.2477607 10.3614242,11.2477607 C9.3988563,11.2477607 8.53407799,11.0197749 7.94669955,10.6939514 L8.33823177,9.24424763 Z" id="Shape"></path>
                        </g>
                    </g>
                </g>
            </g>
        </g>
    </g>
</svg>