<?xml version="1.0" encoding="UTF-8"?>
<svg width="33px" height="32px" viewBox="0 0 33 32" version="1.1" xmlns="http://www.w3.org/2000/svg" xmlns:xlink="http://www.w3.org/1999/xlink">
    <!-- Generator: Sketch 43.1 (39012) - http://www.bohemiancoding.com/sketch -->
    <title>Group 9</title>
    <desc>Created with Sketch.</desc>
    <defs></defs>
    <g id="Page-1" stroke="none" stroke-width="1" fill="none" fill-rule="evenodd">
        <g id="Home" transform="translate(-147.000000, -503.000000)">
            <g id="Group-13" transform="translate(60.000000, 504.000000)">
                <g id="Group-9" transform="translate(88.649746, 0.000000)">
                    <ellipse id="Oval-4" stroke="#FFFFFF" stroke-width="1.5" cx="15.0253807" cy="15" rx="15.0253807" ry="15"></ellipse>
                    <g id="Ai" transform="translate(9.015228, 9.750000)" fill-rule="nonzero" fill="#FFFFFF">
                        <g id="Group">
                            <path d="M3.04461568,8.13375 L2.09828373,11.2448282 L0.0261697982,11.2448282 L3.55038709,0.26653436 L6.11198306,0.26653436 L9.68517526,11.2448282 L7.53145428,11.2448282 L6.53620083,8.13375 L3.04461568,8.13375 Z M6.19359011,6.6189455 L5.32886521,3.91510664 C5.11678302,3.2473045 4.93727957,2.49803318 4.77411889,1.86275474 L4.74148676,1.86275474 C4.57832608,2.49803318 4.4151654,3.26351303 4.21937258,3.91510664 L3.37093704,6.6189455 L6.19359011,6.6189455 Z" id="Shape"></path>
                            <path d="M12.6218005,1.09716825 C12.6218005,1.69981635 12.1812933,2.17220972 11.4796757,2.17220972 C10.8107436,2.17220972 10.3702365,1.69986967 10.3702365,1.09716825 C10.3702365,0.478204976 10.8270864,0.00586492891 11.4960185,0.00586492891 C12.1812933,0.00586492891 12.6054577,0.478204976 12.6218005,1.09716825 Z M10.4844757,11.2447749 L10.4844757,3.3123519 L12.5076147,3.3123519 L12.5076147,11.2447749 L10.4844757,11.2447749 Z" id="Shape"></path>
                        </g>
                    </g>
                </g>
            </g>
        </g>
    </g>
</svg>