<?xml version="1.0" encoding="UTF-8"?>
<svg width="80px" height="16px" viewBox="0 0 80 16" version="1.1" xmlns="http://www.w3.org/2000/svg" xmlns:xlink="http://www.w3.org/1999/xlink">
    <!-- Generator: Sketch 43.1 (39012) - http://www.bohemiancoding.com/sketch -->
    <title>Group</title>
    <desc>Created with Sketch.</desc>
    <defs>
        <linearGradient x1="100%" y1="100%" x2="-70.3186035%" y2="-63.359375%" id="linearGradient-1">
            <stop stop-color="#04A5C1" offset="0%"></stop>
            <stop stop-color="#82E197" offset="36.2084961%"></stop>
            <stop stop-color="#F9F981" offset="100%"></stop>
        </linearGradient>
    </defs>
    <g id="Page-1" stroke="none" stroke-width="1" fill="none" fill-rule="evenodd">
        <g id="Home" transform="translate(-40.000000, -40.000000)">
            <g id="Group" transform="translate(40.000000, 40.000000)">
                <path d="M0,0 L0,1.32121212 C0,2.27757576 0,3.07515152 1.73212121,3.05333333 L2.86860606,3.05333333 L2.86860606,9.76193939 C2.86860606,13.2009697 5.65648485,15.9886061 9.09527273,15.9886061 C12.534303,15.9886061 15.3219394,13.2009697 15.3219394,9.76193939 C15.3219394,6.32290909 12.534303,3.53527273 9.09527273,3.53527273 C7.93624242,3.53527273 6.85115152,3.85236364 5.92193939,4.40412121 L5.92193939,3.05333333 L5.92193939,0 L0,0 Z M5.96169697,9.76193939 C5.96169697,8.03127273 7.36484848,6.62860606 9.09527273,6.62860606 L9.09527273,6.62860606 C10.8259394,6.62860606 12.2288485,8.03127273 12.2288485,9.76193939 L12.2288485,9.76193939 C12.2288485,11.4926061 10.8259394,12.8955152 9.09527273,12.8955152 L9.09527273,12.8955152 C7.36484848,12.8955152 5.96169697,11.4926061 5.96169697,9.76193939 L5.96169697,9.76193939 Z" id="Fill-1" fill="url(#linearGradient-1)"></path>
                <path d="M67.0424242,12.5553939 C65.3231515,12.5553939 63.9292121,11.161697 63.9292121,9.44242424 C63.9292121,7.72290909 65.3231515,6.32921212 67.0424242,6.32921212 C68.761697,6.32921212 70.1556364,7.72290909 70.1556364,9.44242424 C70.1556364,11.161697 68.761697,12.5553939 67.0424242,12.5553939 M67.0424242,3.2 C63.5949091,3.2 60.8,5.99466667 60.8,9.44242424 C60.8,12.8899394 63.5949091,15.6848485 67.0424242,15.6848485 C70.4899394,15.6848485 73.2848485,12.8899394 73.2848485,9.44242424 C73.2848485,5.99466667 70.4899394,3.2 67.0424242,3.2" id="Fill-4" fill="#FFFFFF"></path>
                <path d="M38.2560001,6.33601747 C39.4304275,6.33601747 40.4522814,7.22862114 40.984588,8.1873076 L35.5276552,8.1873076 C36.0597189,7.22862114 37.0815728,6.33601747 38.2560001,6.33601747 L38.2560001,6.33601747 Z M40.5028153,11.618754 C39.9355236,12.2083972 39.1388857,12.5757399 38.2560001,12.5757399 C37.0815728,12.5757399 36.0597189,11.9263306 35.5276552,10.9674012 L40.984588,10.9674012 L44.3271142,10.9674012 C44.4471322,10.4831989 44.5120003,9.97713102 44.5120003,9.45600014 C44.5120003,6.00074445 41.7112558,3.2 38.2560001,3.2 C34.8009874,3.2 32,6.00074445 32,9.45600014 C32,12.9110129 34.8009874,15.7120003 38.2560001,15.7120003 C40.9508177,15.7120003 43.2474379,14.0079387 44.1276511,11.618754 L40.5028153,11.618754 Z" id="Fill-7" fill="#FFFFFF"></path>
                <path d="M53.4099394,3.2 C52.2758788,3.2 51.2133333,3.50375758 50.2967273,4.03248485 L50.2967273,3.2 L50.2518788,3.2 L47.1675152,3.2 L45.6,3.2 L45.6,5.26884848 C45.6,5.80436364 46.0341818,6.23854545 46.569697,6.23854545 L47.1675152,6.23854545 L47.1675152,15.6848485 L50.2967273,15.6848485 L50.2967273,14.8521212 L50.2967273,9.44242424 C50.2967273,7.72315152 51.6906667,6.32921212 53.4099394,6.32921212 C55.1292121,6.32921212 56.5231515,7.72315152 56.5231515,9.44242424 L56.5243636,9.44242424 L56.5243636,14.8516364 L56.5243636,15.6848485 L59.6523636,15.6848485 L59.6523636,9.44242424 C59.6523636,5.99466667 56.8574545,3.2 53.4099394,3.2" id="Fill-10" fill="#FFFFFF"></path>
                <path d="M29.8826667,12.6460606 L29.2848485,12.6460606 L29.2848485,3.2 L26.1553939,3.2 L26.1553939,4.03248485 L26.1553939,9.44242424 C26.1553939,11.161697 24.761697,12.5553939 23.0424242,12.5553939 C21.3229091,12.5553939 19.9292121,11.161697 19.9292121,9.44242424 L19.928,9.44242424 L19.928,4.03321212 L19.928,3.2 L16.8,3.2 L16.8,9.44242424 C16.8,12.8899394 19.5946667,15.6848485 23.0424242,15.6848485 C24.1764848,15.6848485 25.2387879,15.3808485 26.1553939,14.8521212 L26.1553939,15.6848485 L26.2004848,15.6848485 L29.2848485,15.6848485 L30.8523636,15.6848485 L30.8523636,13.6157576 C30.8523636,13.0802424 30.4181818,12.6460606 29.8826667,12.6460606" id="Fill-13" fill="#FFFFFF"></path>
                <ellipse id="Oval" fill="#FFFFFF" cx="76.8" cy="13.6" rx="2.4" ry="2.4"></ellipse>
            </g>
        </g>
    </g>
</svg>